# xmcd
#
# Track frame offsets:
# 150
# 13410
# 25736
# 40529
# 53608
# 65995
# 78410
# 92288
# 103364
# 115056
# 130906
#
# Disc length: 1912 seconds
#
# Revision: 0
# Processed by: cddbd v1.5.1PL2 Copyright (c) Steve Scherf et al.
# Submitted via: Axialis_AX_CDPlayer 2.6
#
DISCID=8a07760b
DTITLE=Various Artist - Country Favorites - Disc 2 of 4
DYEAR=1900
DGENRE=
TTITLE0=Rose Garden - Lynn Anderson
TTITLE1=Take This Job And Shove It - Johnny Paycheck
TTITLE2=Satin Sheets - Jeanne Pruett
TTITLE3=Ruby Don't Take Your Love To Town - Kenny Rogers
TTITLE4=Trying To Beat The Morning Home - T.G. Sheppard
TTITLE5=Barstool Mountain - Moe Bandy
TTITLE6=Tennessee Waltz - Lacy J. Dalton
TTITLE7=There Goes My Everything - Jack Greene
TTITLE8=The Happiest Girl In The Whole U.S.A. - Donna Fargo
TTITLE9=Kiss You All Over - Exile
TTITLE10=Wasted Days and Wasted Nights - Freddy Fender (Live)
EXTD=
EXTT0=
EXTT1=
EXTT2=
EXTT3=
EXTT4=
EXTT5=
EXTT6=
EXTT7=
EXTT8=
EXTT9=
EXTT10=
PLAYORDER=
